<svg width="33" height="40" viewBox="0 0 33 40" fill="none" xmlns="http://www.w3.org/2000/svg">
<path d="M28.1673 28.2842L16.5 40L4.83267 28.2842C2.52513 25.967 0.953675 23.0148 0.317035 19.8008C-0.319604 16.5869 0.00716255 13.2555 1.25601 10.228C2.50487 7.20049 4.61971 4.61285 7.33312 2.79229C10.0465 0.971723 13.2366 0 16.5 0C19.7634 0 22.9535 0.971723 25.6669 2.79229C28.3803 4.61285 30.4951 7.20049 31.744 10.228C32.9928 13.2555 33.3196 16.5869 32.683 19.8008C32.0463 23.0148 30.4749 25.967 28.1673 28.2842ZM16.5 20.2503C17.4725 20.2503 18.4051 19.8624 19.0927 19.1719C19.7804 18.4814 20.1667 17.5449 20.1667 16.5684C20.1667 15.5919 19.7804 14.6554 19.0927 13.9649C18.4051 13.2744 17.4725 12.8865 16.5 12.8865C15.5275 12.8865 14.5949 13.2744 13.9073 13.9649C13.2196 14.6554 12.8333 15.5919 12.8333 16.5684C12.8333 17.5449 13.2196 18.4814 13.9073 19.1719C14.5949 19.8624 15.5275 20.2503 16.5 20.2503Z" fill="#EC5118"/>
</svg>
